<svg xmlns="http://www.w3.org/2000/svg" version="1.1" xmlns:xlink="http://www.w3.org/1999/xlink" xmlns:svgjs="http://svgjs.dev/svgjs" width="1000" height="136" viewBox="0 0 1000 136"><g transform="matrix(1,0,0,1,-0.6060606060606233,0.4177269388990936)"><svg viewBox="0 0 396 54" data-background-color="#ffffff" preserveAspectRatio="xMidYMid meet" height="136" width="1000" xmlns="http://www.w3.org/2000/svg" xmlns:xlink="http://www.w3.org/1999/xlink"><g id="tight-bounds" transform="matrix(1,0,0,1,0.2400000000000091,-0.16586216691581512)"><svg viewBox="0 0 395.52 54.33172205438066" height="54.33172205438066" width="395.52"><g><svg viewBox="0 0 395.52 54.33172205438066" height="54.33172205438066" width="395.52"><g><svg viewBox="0 0 395.52 54.33172205438066" height="54.33172205438066" width="395.52"><g id="textblocktransform"><svg viewBox="0 0 395.52 54.33172205438066" height="54.33172205438066" width="395.52" id="textblock"><g><svg viewBox="0 0 395.52 54.33172205438066" height="54.33172205438066" width="395.52"><g transform="matrix(1,0,0,1,0,0)"><svg width="395.52" viewBox="2.5999999046325684 -35.52000045776367 262.8800048828125 36.369998931884766" height="54.33172205438066" data-palette-color="#000000"><g class="wordmark-text-0" data-fill-palette-color="primary" id="text-0"><path d="M27.4 0L17.45 0 8.33-27.88Q8.5-26.75 8.71-25.16 8.93-23.58 9.13-21.64 9.33-19.7 9.45-17.53 9.58-15.35 9.58-13.08L9.58-13.08 9.58 0 2.6 0 2.6-34.65 12.83-34.65 21.68-6.93Q21.4-8.5 21.11-10.69 20.83-12.88 20.63-15.58 20.43-18.28 20.43-21.38L20.43-21.38 20.43-34.65 27.4-34.65 27.4 0ZM58.87-17.35L58.87-17.35Q58.87-11.85 57.3-7.76 55.72-3.68 52.64-1.41 49.55 0.85 45 0.85L45 0.85Q40.47 0.85 37.37-1.36 34.27-3.58 32.7-7.65 31.12-11.73 31.12-17.35L31.12-17.35Q31.12-22.85 32.7-26.93 34.27-31 37.37-33.26 40.47-35.52 45-35.52L45-35.52Q49.55-35.52 52.64-33.33 55.72-31.13 57.3-27.05 58.87-22.98 58.87-17.35ZM50.47-17.35L50.47-17.35Q50.47-23.75 49.2-26.65 47.92-29.55 45-29.55L45-29.55Q42.07-29.55 40.8-26.64 39.52-23.73 39.52-17.35L39.52-17.35Q39.52-10.95 40.82-8.05 42.12-5.15 45-5.15L45-5.15Q48-5.15 49.23-8.09 50.47-11.03 50.47-17.35ZM87.72-28.48L71.59-6.53 88.09-6.53 87.25 0 61.95 0 61.95-6.13 78.4-28.33 63.75-28.33 63.75-34.65 87.72-34.65 87.72-28.48Z" fill="#000000" data-fill-palette-color="primary"></path><path d="M146.49-10.13L146.49-10.13Q146.49-6.9 144.8-4.42 143.11-1.95 139.96-0.55 136.81 0.85 132.39 0.85L132.39 0.85Q127.49 0.85 124.18-0.59 120.86-2.02 118.69-4.15L118.69-4.15 122.84-8.75Q124.76-7.08 127.09-6.16 129.41-5.25 132.19-5.25L132.19-5.25Q133.91-5.25 135.21-5.75 136.51-6.25 137.24-7.2 137.96-8.15 137.96-9.5L137.96-9.5Q137.96-10.78 137.39-11.65 136.81-12.53 135.45-13.23 134.09-13.93 131.66-14.65L131.66-14.65Q127.61-15.9 125.15-17.4 122.69-18.9 121.57-20.88 120.46-22.85 120.46-25.48L120.46-25.48Q120.46-28.65 122.22-30.9 123.99-33.15 126.96-34.34 129.94-35.52 133.51-35.52L133.51-35.52Q137.54-35.52 140.61-34.36 143.69-33.2 145.94-31.05L145.94-31.05 142.06-26.6Q140.31-28.08 138.29-28.79 136.26-29.5 134.16-29.5L134.16-29.5Q132.61-29.5 131.44-29.11 130.26-28.73 129.61-27.98 128.96-27.23 128.96-26.1L128.96-26.1Q128.96-25 129.59-24.25 130.21-23.5 131.76-22.84 133.31-22.18 136.06-21.3L136.06-21.3Q139.34-20.3 141.68-18.91 144.01-17.53 145.25-15.43 146.49-13.33 146.49-10.13ZM169.91 0L168.09-7.48 157.93-7.48 156.11 0 147.54 0 158.14-34.65 168.09-34.65 178.68 0 169.91 0ZM162.99-28.75L159.24-13.43 166.74-13.43 162.99-28.75ZM205.11 0L182.73 0 182.73-34.65 190.93-34.65 190.93-6.48 205.96-6.48 205.11 0ZM236.96-17.35L236.96-17.35Q236.96-11.85 235.38-7.76 233.81-3.68 230.72-1.41 227.63 0.85 223.08 0.85L223.08 0.85Q218.56 0.85 215.46-1.36 212.36-3.58 210.78-7.65 209.21-11.73 209.21-17.35L209.21-17.35Q209.21-22.85 210.78-26.93 212.36-31 215.46-33.26 218.56-35.52 223.08-35.52L223.08-35.52Q227.63-35.52 230.72-33.33 233.81-31.13 235.38-27.05 236.96-22.98 236.96-17.35ZM228.56-17.35L228.56-17.35Q228.56-23.75 227.28-26.65 226.01-29.55 223.08-29.55L223.08-29.55Q220.15-29.55 218.88-26.64 217.61-23.73 217.61-17.35L217.61-17.35Q217.61-10.95 218.9-8.05 220.21-5.15 223.08-5.15L223.08-5.15Q226.08-5.15 227.32-8.09 228.56-11.03 228.56-17.35ZM265.48 0L255.53 0 246.4-27.88Q246.58-26.75 246.79-25.16 247-23.58 247.2-21.64 247.4-19.7 247.53-17.53 247.65-15.35 247.65-13.08L247.65-13.08 247.65 0 240.68 0 240.68-34.65 250.9-34.65 259.75-6.93Q259.48-8.5 259.19-10.69 258.9-12.88 258.7-15.58 258.5-18.28 258.5-21.38L258.5-21.38 258.5-34.65 265.48-34.65 265.48 0Z" fill="#89939e" data-fill-palette-color="secondary"></path></g></svg></g></svg></g></svg></g></svg></g><g></g></svg></g><defs></defs></svg><rect width="395.52" height="54.33172205438066" fill="none" stroke="none" visibility="hidden"></rect></g></svg></g></svg>